<?xml version="1.0" encoding="UTF-8"?>
<!-- Generator: Adobe Illustrator 16.0.0, SVG Export Plug-In . SVG Version: 6.00 Build 0)  -->
<!DOCTYPE svg PUBLIC "-//W3C//DTD SVG 1.1//EN" "http://www.w3.org/Graphics/SVG/1.1/DTD/svg11.dtd">
<svg version="1.1" id="Layer_1" xmlns="http://www.w3.org/2000/svg" xmlns:xlink="http://www.w3.org/1999/xlink" x="0px" y="0px" width="524.973px" height="595.659px" viewBox="133.513 6.12 524.973 595.659" enable-background="new 133.513 6.12 524.973 595.659" xml:space="preserve">
<g>
	<path fill-rule="evenodd" clip-rule="evenodd" d="M586.884,155.428c12.062,0,24.042-0.011,36.022,0.003   c16.443,0.018,25.07,8.566,25.07,24.826c0.001,103.162,0,206.325-0.002,309.487c0,16.914-8.615,25.598-25.466,25.6   c-130.159,0.016-260.319,0.021-390.479,0c-2.652,0-5.352-0.084-7.948-0.568c-11.146-2.076-18.14-10.361-18.255-21.682   c-0.115-11.164-0.03-22.33-0.033-33.496c0-1.797,0-3.592,0-6.037c-7.408,0-14.346,0-21.284,0c-5.5,0-10.999,0.025-16.499-0.006   c-14.963-0.082-23.975-9.062-23.976-23.965c-0.012-94.996-0.006-189.993-0.006-284.989c0-8.999-0.018-17.999,0.005-26.998   c0.037-14.85,9.105-24.009,23.989-24.026c42.331-0.051,84.662-0.032,126.993-0.032c88.662,0.002,177.325,0.145,265.986-0.137   c12.768-0.041,26.281,7.983,25.332,25.408c-0.633,11.628-0.068,23.321-0.022,34.985   C586.312,154.106,586.517,154.41,586.884,155.428z M247.124,474.014c120.07,0,239.646,0,359.518,0c0-92.498,0-184.721,0-277.174   c-119.916,0-239.623,0-359.518,0C247.124,289.278,247.124,381.398,247.124,474.014z M205.586,412.279   c0.079-1.797,0.198-3.26,0.199-4.723c0.008-20.664-0.003-41.33-0.001-61.994c0.003-55.662-0.017-111.324,0.037-166.985   c0.012-12.072,7.062-20.905,18.218-22.783c3.416-0.575,6.978-0.372,10.472-0.372c101.658-0.011,203.315-0.001,304.973,0.005   c1.761,0,3.521,0,5.183,0c0-7.286,0-13.847,0-20.41c-119.977,0-239.55,0-359.329,0c0,92.554,0,184.786,0,277.262   C192.05,412.279,198.496,412.279,205.586,412.279z"/>
	<path fill-rule="evenodd" clip-rule="evenodd" fill="#FFFFFF" d="M247.124,474.014c0-92.615,0-184.736,0-277.174   c119.895,0,239.602,0,359.518,0c0,92.453,0,184.676,0,277.174C486.77,474.014,367.194,474.014,247.124,474.014z M586.052,449.688   c0-10.662-0.826-21.207,0.205-31.564c1.346-13.533-3.385-23.844-11.605-34.363c-26.245-33.584-51.486-67.953-77.346-101.843   c-2.116-2.772-5.907-5.686-9.049-5.836c-2.841-0.135-6.648,2.813-8.678,5.445c-22.978,29.806-45.689,59.818-68.486,89.763   c-6.203,8.15-12.056,8.109-18.35-0.133c-9.098-11.91-18.143-23.861-27.245-35.768c-6.673-8.729-12.549-8.549-18.881,0.57   c-25.262,36.375-50.511,72.762-75.754,109.15c-0.917,1.32-1.727,2.715-2.904,4.578   C374.276,449.688,479.966,449.688,586.052,449.688z M371.018,257.219c-0.027-19.806-16.116-35.813-36.003-35.822   c-19.868-0.008-35.922,15.981-35.974,35.828c-0.052,19.794,16.052,36.118,35.726,36.216   C354.684,293.54,371.045,277.192,371.018,257.219z"/>
	<path fill-rule="evenodd" clip-rule="evenodd" fill="#FFFFFF" d="M205.586,412.279c-7.09,0-13.536,0-20.249,0   c0-92.477,0-184.708,0-277.262c119.779,0,239.353,0,359.329,0c0,6.563,0,13.124,0,20.41c-1.661,0-3.422,0-5.183,0   c-101.658-0.006-203.315-0.016-304.973-0.005c-3.495,0-7.057-0.203-10.472,0.372c-11.155,1.878-18.206,10.711-18.218,22.783   c-0.054,55.661-0.034,111.323-0.037,166.985c-0.001,20.664,0.01,41.33,0.001,61.994   C205.784,409.02,205.665,410.482,205.586,412.279z"/>
	<path fill-rule="evenodd" clip-rule="evenodd" d="M586.052,449.688c-106.086,0-211.776,0-318.093,0   c1.177-1.863,1.987-3.258,2.904-4.578c25.243-36.389,50.492-72.775,75.754-109.15c6.332-9.119,12.208-9.299,18.881-0.57   c9.103,11.906,18.147,23.857,27.245,35.768c6.294,8.242,12.147,8.283,18.35,0.133c22.797-29.945,45.509-59.957,68.486-89.763   c2.029-2.632,5.837-5.58,8.678-5.445c3.142,0.15,6.933,3.063,9.049,5.836c25.859,33.89,51.101,68.259,77.346,101.843   c8.221,10.52,12.951,20.83,11.605,34.363C585.226,428.48,586.052,439.025,586.052,449.688z"/>
	<path fill-rule="evenodd" clip-rule="evenodd" d="M371.018,257.219c0.027,19.973-16.334,36.32-36.252,36.222   c-19.674-0.098-35.777-16.422-35.726-36.216c0.052-19.847,16.106-35.836,35.974-35.828   C354.901,221.406,370.991,237.414,371.018,257.219z"/>
</g>
</svg>