<?xml version="1.0" encoding="utf-8"?>
<!-- Svg Vector Icons : http://www.onlinewebfonts.com/icon -->
<!DOCTYPE svg PUBLIC "-//W3C//DTD SVG 1.1//EN" "http://www.w3.org/Graphics/SVG/1.1/DTD/svg11.dtd">
<svg version="1.1" xmlns="http://www.w3.org/2000/svg" xmlns:xlink="http://www.w3.org/1999/xlink" x="0px" y="0px" viewBox="0 0 1000 1000" enable-background="new 0 0 1000 1000" xml:space="preserve">
<metadata> Svg Vector Icons : http://www.onlinewebfonts.com/icon </metadata>
<g><path d="M769.5,10h-735v196h735V10z M769.5,255h-735v98h735V255z M769.5,451v-49h-735v98h686L769.5,451L769.5,451z M671.5,549h-637v98h539L671.5,549L671.5,549z M524.5,696h-490v98h392L524.5,696L524.5,696z M328.5,990h49c120.9-129.8,147-147,147-147c276.5-25.7,441-490,441-490C542.2,687.5,328.5,990,328.5,990z"/></g>
</svg>