<?xml version="1.0" encoding="UTF-8" standalone="no"?>
<svg
   xmlns:dc="http://purl.org/dc/elements/1.1/"
   xmlns:cc="http://creativecommons.org/ns#"
   xmlns:rdf="http://www.w3.org/1999/02/22-rdf-syntax-ns#"
   xmlns:svg="http://www.w3.org/2000/svg"
   xmlns="http://www.w3.org/2000/svg"
   xmlns:sodipodi="http://sodipodi.sourceforge.net/DTD/sodipodi-0.dtd"
   xmlns:inkscape="http://www.inkscape.org/namespaces/inkscape"
   viewBox="0 0 539.28723 483.43854"
   height="483.43854"
   width="539.28723"
   id="svg22"
   version="1.1"
   inkscape:version="0.48.5 r10040"
   sodipodi:docname="02bbc_copy_of_totoro_before_xmas_.svg">
  <sodipodi:namedview
     pagecolor="#ffffff"
     bordercolor="#666666"
     borderopacity="1"
     objecttolerance="10"
     gridtolerance="10"
     guidetolerance="10"
     inkscape:pageopacity="0"
     inkscape:pageshadow="2"
     inkscape:window-width="640"
     inkscape:window-height="480"
     id="namedview6"
     showgrid="false"
     inkscape:zoom="0.39597315"
     inkscape:cx="263.41656"
     inkscape:cy="269"
     inkscape:window-x="0"
     inkscape:window-y="0"
     inkscape:window-maximized="0"
     inkscape:current-layer="svg22" />
  <metadata
     id="metadata28">
    <rdf:RDF>
      <cc:Work
         rdf:about="">
        <dc:format>image/svg+xml</dc:format>
        <dc:type
           rdf:resource="http://purl.org/dc/dcmitype/StillImage" />
        <dc:title />
      </cc:Work>
    </rdf:RDF>
  </metadata>
  <defs
     id="defs26" />
  <path
     id="path32"
     d="m 412.43452,469.18854 c 6.27549,-18.60021 8.70037,-35.20001 6.97877,-47.77387 -0.63404,-4.63081 -1.3682,-8.76817 -1.63146,-9.19413 -0.26326,-0.42597 -0.63654,-1.59429 -0.8295,-2.59628 -0.60596,-3.14649 -6.22964,-14.87848 -7.51176,-15.67088 -0.74771,-0.46211 -5.17724,1.96387 -11.37432,6.22953 -37.47307,25.79404 -78.60166,41.07306 -123.02898,45.7045 -28.68254,2.99009 -60.76987,1.36384 -85.68591,-4.34272 -14.58804,-3.34112 -19.30028,-4.65831 -30.99255,-8.66322 C 94.085795,410.86626 41.030987,362.94125 16.167598,304.43854 4.1961051,276.27002 0.00835614,255.03023 4.6141746e-5,222.43854 -0.00545386,200.70108 0.47401814,196.29001 5.0549181,175.93854 11.547387,147.09459 26.492511,116.6302 46.232799,92.000865 81.173135,48.406915 134.76485,16.170568 190.91656,4.9710757 c 23.75284,-4.73751899 26.16172,-4.95129499 56,-4.96973599 30.3624,-0.01876 31.41977,0.08268 57.86271,5.55110399 60.63592,12.5395813 119.05792,51.4274713 152.31419,101.3860963 10.07742,15.13863 15.67134,25.67032 21.39149,40.27388 8.23317,21.01932 12.40641,39.32415 13.50272,59.22612 0.31812,5.775 0.77219,11.10565 1.00905,11.84588 0.23686,0.74023 -0.0554,8.75363 -0.64943,17.80756 -0.79327,12.09031 -0.78307,16.81956 0.0384,17.80938 0.61517,0.74124 4.81128,2.82368 9.32468,4.62765 17.93075,7.16679 39.68099,20.26805 37.41319,22.53585 -0.27129,0.27129 -7.17885,-2.853 -15.35013,-6.94287 -27.57099,-13.79976 -43.74652,-19.45872 -81.85688,-28.63737 -7.15,-1.72203 -14.76301,-3.60256 -16.91781,-4.17894 -6.18855,-1.65538 -31.71005,-5.84691 -35.66541,-5.85753 -1.97077,-0.005 -6.13327,-0.52173 -9.25,-1.14766 -4.37282,-0.87819 -5.66677,-1.54974 -5.66677,-2.94099 0,-0.99161 0.46435,-2.08991 1.03188,-2.44066 1.00336,-0.62011 3.47013,-5.66999 5.9532,-12.18717 0.74169,-1.94668 1.08293,-6.5778 0.86837,-11.78511 -0.27125,-6.58333 -0.0264,-8.78071 1.05292,-9.4488 1.1791,-0.72986 1.20239,-1.59912 0.1441,-5.37897 -0.9456,-3.37733 -0.9878,-5.34535 -0.16822,-7.84434 0.80738,-2.46178 0.75746,-6.76834 -0.19051,-16.43496 -1.19792,-12.21546 -1.49353,-13.36218 -4.38238,-17 -3.95867,-4.98501 -14.17654,-14.52642 -22.2268,-20.75532 -4.52306,-3.49972 -5.97003,-5.15816 -5.18519,-5.943 0.78484,-0.78484 0.4627,-1.7707 -1.15437,-3.53281 -1.66515,-1.8145 -1.89975,-2.56619 -0.91062,-2.91779 0.85124,-0.30259 0.18697,-1.17018 -1.83948,-2.40254 -2.41845,-1.47075 -2.91514,-2.23826 -2.09106,-3.23122 1.3675,-1.64774 0.42007,-2.61827 -2.55596,-2.61827 -1.61893,0 -3.08218,-1.20612 -4.83841,-3.98817 -1.75981,-2.78772 -4.32965,-4.902865 -8.53762,-7.027045 l -6.02001,-3.03889 0.64196,-6.26587 c 0.53454,-5.21741 0.26039,-7.179 -1.63838,-11.72294 -2.93565,-7.02529 -3.75643,-7.90585 -5.35399,-5.74399 -1.98107,2.68083 -4.05012,15.73622 -2.7068,17.07954 0.60905,0.60905 1.10737,2.14237 1.10737,3.40737 0,2.23771 -0.25587,2.3 -9.44838,2.3 -7.37192,0 -11.23781,0.56528 -17.59073,2.57217 -4.4783,1.41469 -8.77653,2.32882 -9.55163,2.03138 -0.77509,-0.29743 -1.40926,-1.68408 -1.40926,-3.08144 0,-3.05523 -10.76006,-19.77367 -12.37036,-19.22043 -1.50812,0.51813 -1.3138,15.38902 0.24433,18.69832 0.6474,1.375 2.27121,4.00027 3.60846,5.83394 l 2.43138,3.333925 -3.96201,5.01233 c -2.17911,2.75677 -4.21587,6.2065 -4.52614,7.66606 -1.5284,7.18991 -2.99541,9.65214 -6.46285,10.8473 -3.31415,1.14232 -3.34475,1.19598 -0.71281,1.25 2.23644,0.0459 2.75,0.51403 2.75,2.50675 0,1.34767 -0.7875,2.90899 -1.75,3.46959 -0.97121,0.56568 -1.19372,1.03282 -0.5,1.04969 1.31014,0.0319 1.80317,5.01401 0.5,5.05265 -0.4125,0.0122 -1.875,0.89425 -3.25,1.96005 -2.41323,1.87056 -2.4219,1.91781 -0.25,1.36114 1.2375,-0.31718 2.25,-0.39031 2.25,-0.16252 0,0.2278 -2.28294,4.66778 -5.07319,9.86663 -5.30295,9.88055 -6.86745,16.02972 -6.9067,27.14639 -0.0273,7.71732 5.64066,22.0038 10.51544,26.50509 1.90545,1.75946 3.46445,4.1316 3.46445,5.27144 0,1.24016 1.00397,2.52986 2.5,3.21149 1.86241,0.84858 2.51119,1.92701 2.54389,4.22857 0.0656,4.6196 2.22158,9.83543 6.9532,16.82173 3.57743,5.28213 5.20876,6.71112 10.37393,9.08725 l 6.12898,2.81951 -3.26578,2.93049 c -1.79617,1.61178 -4.04617,2.94596 -5,2.96485 -0.95382,0.0189 -5.55922,1.36584 -10.23422,2.99322 -4.675,1.62738 -9.52107,2.96193 -10.76905,2.96565 -2.26558,0.007 -2.38567,-1.09633 -0.72186,-6.63104 0.18812,-0.62579 -0.56701,-5.12579 -1.67806,-10 -1.11106,-4.8742 -2.23257,-10.62471 -2.49224,-12.77891 -0.25968,-2.1542 -1.77825,-5.8151 -3.3746,-8.13532 -2.89284,-4.2046 -11.06927,-10.44795 -13.68286,-10.44795 -0.75668,0 -3.41253,-2.00793 -5.90188,-4.46207 -2.48935,-2.45413 -6.91585,-5.5926 -9.83667,-6.97437 -4.55509,-2.1549 -5.40277,-3.00372 -5.95861,-5.96658 -0.82049,-4.37359 -3.80141,-8.19878 -5.54801,-7.11933 -0.91037,0.56264 -1.12628,2.36025 -0.73678,6.13417 0.30303,2.93606 0.24714,5.26379 -0.12421,5.17274 -1.40462,-0.34442 -7.78199,1.5085 -10.36682,3.01205 -2.62938,1.52945 -2.79929,1.46647 -7.34336,-2.72211 -2.74493,-2.5302 -5.01937,-3.92012 -5.54867,-3.39082 -1.27956,1.27956 0.61381,7.18726 3.17832,9.91706 1.86956,1.99005 1.99996,2.68914 1.02389,5.4891 -0.61519,1.76473 -1.11853,6.32104 -1.11853,10.12512 0,3.80409 -0.47851,7.81063 -1.06336,8.90342 -0.69592,1.30034 -0.816,5.68332 -0.34753,12.68426 l 0.71583,10.69736 5.48275,5 c 3.01552,2.75 7.23599,7.36234 9.37882,10.24965 2.28707,3.08166 5.32857,5.84819 7.36478,6.69898 4.00316,1.67262 4.42991,3.23412 1.21871,4.45937 -1.2375,0.47217 -5.77036,2.48603 -10.07303,4.47525 -4.30267,1.98921 -8.23159,3.61675 -8.73095,3.61675 -0.49935,0 -1.19053,-1.12603 -1.53595,-2.50229 -0.55715,-2.21986 -7.11367,-8.49771 -8.87493,-8.49771 -1.28939,0 -11.50996,-9.50524 -11.52252,-10.71607 -0.007,-0.66884 -0.77097,-2.80634 -1.69783,-4.75 -1.2531,-2.62778 -2.31463,-3.53393 -4.13991,-3.53393 -2.37752,0 -2.43684,0.1729 -1.88704,5.5 0.53492,5.1828 0.43985,5.5 -1.64833,5.5 -1.40378,0 -3.60038,-1.65618 -5.99309,-4.51863 -2.07741,-2.48525 -4.19771,-4.25869 -4.71177,-3.94098 -1.64444,1.01632 -1.00467,5.98234 1.37669,10.68613 1.57599,3.11297 2.17665,5.71924 1.88797,8.19192 -0.23285,1.99454 0.0445,4.85384 0.6163,6.354 0.57181,1.50016 1.33576,4.93822 1.69767,7.64014 0.65068,4.8577 3.9142,9.54617 7.49634,10.76946 1.03255,0.35261 -2.06099,4.01233 -10.07036,11.91346 -8.10045,7.99097 -12.87221,13.64892 -15.94231,18.90304 -4.00501,6.85409 -4.41839,8.19996 -4.80994,15.66008 -0.64115,12.21549 4.3258,35.5856 9.87495,46.46283 2.66793,5.22958 9.25002,10.62117 22.67122,18.5707 21.38622,12.6673 18.86781,11.8167 34.76682,11.74258 10.53966,-0.0491 15.60659,-0.52765 20.5,-1.93601 20.85811,-6.00313 35.53676,-20.21953 40.41581,-39.14306 1.04549,-4.05499 1.58419,-10.52339 1.58419,-19.02216 v -12.87781 l -3.07362,-3.72884 c -6.4588,-7.83565 -21.32761,-13.5569 -37.54293,-14.44585 -9.2302,-0.50601 -10.52701,-0.34961 -14.80151,1.78518 -6.20449,3.09867 -16.87246,11.97777 -20.69606,17.22561 -3.70711,5.08798 -3.59225,8.64109 0.62098,19.20821 4.45045,11.16212 7.41911,13.04679 23.66034,15.02091 6.29844,0.76557 11.61109,-0.51346 14.25151,-3.43108 2.27846,-2.51767 5.58129,-11.862 5.58129,-15.79053 0,-3.67066 -1.6557,-4.93027 -7.62476,-5.80073 -4.01473,-0.58546 -8.3764,0.96791 -9.1296,3.25143 -0.24413,0.74014 0.46428,1.25 1.73677,1.25 6.22328,0 8.29057,6.06692 3.38273,9.92742 -5.12993,4.0352 -16.55471,1.15675 -19.61359,-4.94161 -2.4456,-4.87571 -2.3134,-13.00182 0.26485,-16.27953 7.16223,-9.1053 23.35131,-10.88353 36.18243,-3.97432 8.24243,4.43833 9.30266,6.21862 9.29116,15.60129 -0.009,7.55762 -0.29917,8.70935 -3.88688,15.4415 -4.30757,8.08296 -12.57103,16.43552 -19.10311,19.3091 -2.2,0.96782 -6.73532,2.31897 -10.0785,3.00256 -5.21238,1.0658 -7.02798,1.00439 -12.74204,-0.43093 -10.2823,-2.58283 -17.48908,-6.48549 -24.28965,-13.1535 -7.31105,-7.16852 -9.39591,-12.59986 -9.37899,-24.43348 0.019,-13.25951 3.88766,-21.94705 14.84771,-33.34201 17.52576,-18.2212 46.6761,-29.74656 80.64147,-31.88374 17.11094,-1.07665 37.4409,0.0459 47,2.59527 2.75,0.7334 8.33948,2.09007 12.42106,3.01481 14.55201,3.29698 39.10214,12.33106 52.31004,19.24931 11.17991,5.85601 23.18468,19.9092 37.5476,43.9545 12.13674,20.31841 18.6048,34.72447 20.26959,45.14566 1.9304,12.08381 -2.18686,31.29843 -10.97051,51.1977 -5.86447,13.2859 -6.83669,15 -8.50787,15 -0.98499,0 -0.0347,-3.92728 3.44805,-14.25 z M 113.86353,369.90423 c 13.01242,-7.28799 8.16542,-23.46569 -7.03056,-23.46569 -8.543975,0 -14.328705,4.75254 -14.383145,11.81672 -0.046,5.97204 3.67798,10.74698 9.766155,12.5222 6.08927,1.77555 7.04638,1.7038 11.64755,-0.87323 z m -15.246975,-9.66569 c -2.48249,-2.48249 -0.64977,-6.8 2.886505,-6.8 1.10643,0 1.83676,1.0238 2.12338,2.97662 0.63993,4.36018 -2.25997,6.57329 -5.009885,3.82338 z m 8.839835,-3.25201 c -1.56718,-1.88833 -0.46139,-5.27942 1.97355,-6.05224 4.61744,-1.46551 8.198,4.25039 4.05236,6.46907 -2.67042,1.42916 -4.60493,1.29535 -6.02591,-0.41683 z m 190.83189,9.52066 c 3.78091,-2.02348 6.12828,-6.12897 6.12828,-10.71819 0,-6.26002 -4.69801,-11.33667 -11.16577,-12.06568 -9.25909,-1.04363 -15.82176,3.74906 -15.83049,11.56093 -0.004,3.77266 2.7658,9.15429 4.71187,9.15429 0.70641,0 1.28439,0.45 1.28439,1 0,0.55 0.675,1 1.5,1 0.825,0 1.5,0.41886 1.5,0.93081 0,1.19726 9.28339,0.52308 11.87172,-0.86216 z m -4.45804,-8.16404 c -1.8686,-2.06477 -1.8622,-2.123 0.43787,-3.98548 1.78389,-1.44451 2.78378,-1.64948 4.24131,-0.86943 2.15626,1.15399 2.5009,3.95654 0.70714,5.7503 -1.73381,1.73381 -3.23238,1.4847 -5.38632,-0.89539 z m -6.84225,-5.47604 c -1.88603,-1.88603 -1.95289,-2.64711 -0.37143,-4.22857 1.82112,-1.82112 4.60254,-1.43748 5.8,0.8 0.85431,1.5963 0.76049,2 -0.46482,2 -0.84435,0 -1.53518,0.675 -1.53518,1.5 0,1.9414 -1.44586,1.91128 -3.42857,-0.0714 z m -203.675025,0.0366 c 3.55993,-4.05453 3.64601,-4.51559 1.58666,-8.49793 -4.62408,-8.94196 -18.48307,-6.6039 -18.48307,3.11818 0,4.97071 4.412184,8.91458 9.973133,8.91458 3.120507,0 4.387787,-0.64703 6.923277,-3.5348 z m -5.229743,-1.13187 c -1.645312,-1.64531 -0.525879,-3.19681 2.083333,-2.88744 1.5125,0.17934 2.9176,0.37738 3.12244,0.44009 0.20485,0.0627 -0.18775,0.78902 -0.87244,1.61402 -1.31346,1.58262 -3.21782,1.94885 -4.333333,0.83333 z m -4.666667,-7.71086 c 0,-2.04759 2.350024,-3.64218 3.929256,-2.66616 0.749198,0.46303 1.085729,1.56229 0.747846,2.4428 -0.750315,1.95528 -4.677102,2.14282 -4.677102,0.22336 z m 4.961364,-23.10246 c 6.717666,-3.47384 8.971136,-10.88916 5.172256,-17.01998 -4.614563,-7.44721 -15.393499,-8.44012 -21.823344,-2.01028 -9.852205,9.85221 3.932966,25.60706 16.651088,19.03026 z m -3.445067,-9.50197 c -1.330208,-1.46986 -1.445837,-2.28115 -0.560817,-3.93482 1.14186,-2.13359 2.67204,-2.54709 5.46273,-1.4762 2.46757,0.94689 1.93934,4.90907 -0.822209,6.16732 -1.972509,0.89873 -2.70477,0.76298 -4.079704,-0.7563 z m -9.396321,-3.79383 c -1.892701,-3.53655 2.086952,-6.64967 5.626962,-4.40174 0.995917,0.63241 0.995917,1.33234 0,3.47688 -1.427563,3.07402 -4.230232,3.53467 -5.626962,0.92486 z m -16.267167,-6.18197 c 5.331226,-1.52897 8.147191,-5.30312 8.147191,-10.91942 0,-3.65981 -0.525178,-5.26613 -2.25,-6.88186 -5.269003,-4.93578 -12.349946,-5.48501 -18.25,-1.41557 -3.674039,2.53409 -4.024278,3.17313 -4.29793,7.84193 -0.265627,4.5319 0.03345,5.41439 2.758484,8.13942 3.945288,3.94529 8.068794,4.90565 13.892255,3.2355 z m -10.890181,-8.87139 c -2.589043,-2.09648 -2.138173,-5.17569 0.755987,-5.16302 2.417087,0.0106 4.53808,4.53427 2.801643,5.97539 -0.908174,0.75371 -1.904579,0.52619 -3.55763,-0.81237 z m 7.077241,-3.62278 c -1.629849,-1.96385 -0.924516,-4.94657 1.269654,-5.36913 3.783256,-0.72859 6.588429,4.8788 3.10869,6.2141 -2.337773,0.89709 -3.045997,0.76041 -4.378344,-0.84497 z m 59.350636,6.06216 c 5.42173,-2.26534 7.6095,-5.32806 7.6095,-10.65274 0,-9.68622 -10.00516,-14.89269 -18.953925,-9.8632 -9.23039,5.18777 -9.30308,15.0748 -0.14641,19.91444 4.34613,2.29709 7.089065,2.44068 11.490835,0.6015 z m -12.285315,-6.98345 c -1.1013,-1.32699 -0.55876,-4.64983 0.7518,-4.60451 1.66926,0.0577 5.35287,3.82918 4.72781,4.84055 -0.96647,1.56378 -4.09784,1.42889 -5.47961,-0.23604 z m 4.60739,-6.24751 c -2.6938,-2.69379 1.96579,-7.72099 4.899605,-5.28614 2.31308,1.91968 1.3189,5.35663 -1.6496,5.70281 -1.395595,0.16275 -2.858095,-0.0247 -3.250005,-0.41667 z m -20.635657,-8.30232 c 3.673267,-3.67326 3.842927,-7.79234 0.470826,-11.4309 -2.033362,-2.19403 -3.322264,-2.64602 -7.545455,-2.64602 -6.39118,0 -10.002294,3.02024 -10.002294,8.36565 0,7.91726 11.143917,11.64428 17.076923,5.71127 z m -13.076923,-8.07692 c 0,-1.33333 0.666667,-2 2,-2 1.333333,0 2,0.66667 2,2 0,1.33333 -0.666667,2 -2,2 -1.333333,0 -2,-0.66667 -2,-2 z m 8.666667,0.33333 c -1.364716,-1.36471 -0.597466,-2.46225 1.505005,-2.15288 2.748102,0.40437 3.67178,2.81955 1.078328,2.81955 -1.054167,0 -2.216667,-0.3 -2.583333,-0.66667 z M 41.603241,243.40344 c 6.458231,-1.79372 9.91987,-10.51236 6.25261,-15.74811 -3.2262,-4.60604 -10.891325,-6.59679 -15.755037,-4.09183 -4.805701,2.47509 -6.684259,5.09633 -6.684259,9.32685 0,4.89389 2.122883,8.25921 6.378302,10.11127 3.811596,1.6589 5.093271,1.7114 9.808384,0.40182 z m -11.700133,-8.00727 c -0.963446,-3.03555 0.761337,-4.44311 3.418464,-2.78973 2.641389,1.64358 2.319038,4.22554 -0.579343,4.6404 -1.486626,0.21278 -2.366175,-0.36055 -2.839121,-1.85067 z m 6.763447,-3.61991 c -1.822046,-0.73521 -1.530265,-5.29294 0.385923,-6.02825 1.741169,-0.66815 4.511782,0.63364 5.099201,2.3959 0.368637,1.10591 -2.371257,4.35358 -3.556553,4.21568 -0.373214,-0.0434 -1.241071,-0.30592 -1.928571,-0.58333 z m 42.663425,-8.10815 c 5.980305,-4.43198 5.555095,-12.62889 -0.880797,-16.97957 -3.941033,-2.66414 -7.947844,-2.8586 -12.67555,-0.61516 -5.864147,2.78272 -7.869661,8.99598 -4.658417,14.43218 3.494648,5.91597 12.410588,7.464 18.214764,3.16255 z m -5.551893,-7.72982 c -0.909085,-2.36903 1.079719,-3.8568 4.131696,-3.09081 1.777942,0.44624 2.533562,1.22214 2.314662,2.37679 -0.44323,2.33794 -5.603856,2.90955 -6.446358,0.71402 z m -7.215294,-2.82354 c -1.371596,-1.65268 0.368209,-3.67621 3.160751,-3.67621 1.328082,0 1.722724,0.48019 1.3,1.58179 -0.333844,0.86998 -0.606989,1.99498 -0.606989,2.5 0,1.37822 -2.600474,1.10454 -3.853762,-0.40558 z m -8.126222,-13.18656 c 10.437371,-5.39738 3.472867,-20.05115 -7.909002,-16.64106 -4.794518,1.43648 -7.444347,4.34412 -7.444347,8.16864 0,8.13926 7.739086,12.40991 15.353349,8.47242 z m -8.353349,-2.15632 c -1.301929,-1.30193 -0.637871,-3.1076 1.332337,-3.62282 2.327199,-0.60857 3.262472,0.44452 2.397252,2.69925 -0.626545,1.63275 -2.545272,2.10789 -3.729589,0.92357 z m -0.416667,-7.99561 c -0.6875,-0.27741 -1.25,-1.17488 -1.25,-1.99438 0,-2.07178 3.393445,-1.25441 3.811841,0.91814 0.337274,1.75133 -0.263412,2.00368 -2.561841,1.07624 z m 41.02916,-10.95177 c 3.54206,-3.44039 4.45886,-6.22206 3.75267,-11.38595 -0.51074,-3.73469 -7.83655,-9 -12.52201,-9 -3.425185,0 -9.982338,3.40883 -11.943738,6.20912 -1.953819,2.78946 -1.981886,9.65728 -0.0499,12.21064 2.795012,3.69397 6.831685,5.56686 12.012978,5.57365 4.42909,0.006 5.47312,-0.42463 8.75,-3.60746 z m -16.52916,-5.46605 c -2.3587,-1.37382 -2.207925,-3.60446 0.335646,-4.96574 1.147106,-0.61391 2.159606,-0.96724 2.25,-0.78518 0.0904,0.18206 0.694603,1.28577 1.342684,2.45269 0.874899,1.57532 0.887774,2.41223 0.05,3.25 -1.357497,1.3575 -1.722852,1.36193 -3.97833,0.0482 z m 7.81858,-5.2461 c -2.30336,-1.68425 -1.27421,-5.6738 1.46362,-5.6738 2.83398,0 4.36118,3.46376 2.39439,5.43055 -1.88853,1.88853 -1.63024,1.87224 -3.85801,0.24325 z M 253.41656,135.15261 c 1.29574,-0.48044 1.28773,-0.56693 -0.0589,-0.63512 -0.85738,-0.0434 -2.43238,0.62087 -3.5,1.47622 -1.91007,1.53028 -1.90913,1.54044 0.0589,0.63512 1.1,-0.50602 2.675,-1.17032 3.5,-1.47622 z m -5.50708,-6.70262 c 0.35034,-0.56686 -0.0511,-0.7345 -0.94098,-0.39301 -1.73242,0.66479 -2.04939,1.38156 -0.61096,1.38156 0.51754,0 1.21592,-0.44485 1.55194,-0.98855 z m -138.43349,-8.11636 c 3.34282,-1.27977 5.94057,-5.79 5.94057,-10.31407 0,-5.16036 -5.0422,-10.508735 -10.61136,-11.255715 -8.126535,-1.08999 -16.340465,6.064585 -14.834485,12.921265 0.75082,3.41846 6.00681,9.32121 8.94584,10.04663 2.363595,0.58339 6.980365,-0.0279 10.559435,-1.39811 z m -4.67089,-6.32495 c -1.42009,-3.70069 2.00069,-5.88509 5.61146,-3.58329 1.15827,0.73837 1.24891,1.36139 0.39787,2.73468 -1.4502,2.34015 -5.23204,2.8742 -6.00933,0.84861 z m -5.031805,-7.08287 c -0.66274,-1.72708 1.270735,-4.48727 3.143265,-4.48727 0.69031,0 1.76808,0.61809 2.39504,1.37353 0.89296,1.07595 0.60213,1.72592 -1.34237,3 -3.05877,2.00418 -3.46626,2.01523 -4.195935,0.11374 z m 255.372435,6.90856 c -0.33229,-0.33229 -1.1948,-0.36781 -1.91667,-0.0789 -0.79773,0.31922 -0.56078,0.55618 0.60417,0.60416 1.05416,0.0434 1.64479,-0.19293 1.3125,-0.52522 z m -184.76505,-5.90541 c 1.97365,-1.97364 2.53588,-3.54773 2.53588,-7.09973 0,-6.403255 -3.47423,-9.390685 -10.92091,-9.390685 -8.97312,0 -13.40268,5.69978 -10.26519,13.208835 2.79966,6.70053 13.37118,8.56063 18.65022,3.28158 z m -14.96412,-8.490415 c 0,-1.1 0.62252,-2 1.38337,-2 0.76085,0 1.61872,0.9 1.90638,2 0.38794,1.483485 0.0307,1.999995 -1.38337,1.999995 -1.23971,0 -1.90638,-0.69941 -1.90638,-1.999995 z m 8.25,-0.49862 c -1.95974,-2.22151 -1.4774,-3.50138 1.31955,-3.50138 2.06869,0 2.50726,0.42331 2.25,2.17167 -0.39159,2.661225 -1.89943,3.222925 -3.56955,1.32971 z m -1.62422,-22.57912 c 4.47155,-2.76357 5.21085,-4.34711 4.31546,-9.24358 -1.00686,-5.5061 -4.92695,-8.667 -10.75698,-8.67371 -5.34997,-0.006 -7.73135,1.21851 -9.67391,4.97501 -5.24149,10.13592 6.02112,19.18091 16.11543,12.94228 z m -3.65172,-6.45352 c -1.05079,-1.26612 -0.94214,-1.78005 0.62756,-2.96819 2.44776,-1.85278 3.327,-1.85013 4.04164,0.0122 0.57462,1.49743 -1.18656,4.48725 -2.64326,4.48725 -0.41531,0 -1.32698,-0.68907 -2.02594,-1.53126 z m -7.47103,-3.46384 c -1.00715,-1.6296 0.19988,-4.0049 2.03514,-4.0049 1.07455,0 1.49586,0.71404 1.28138,2.17167 -0.35944,2.44274 -2.28277,3.50588 -3.31652,1.83323 z m 57.95108,-39.55015 c 8.51224,-4.03932 6.68285,-14.247329 -2.84563,-15.878606 -3.32419,-0.5691 -6.35925,0.732991 -8.83624,3.790896 -3.017,3.72455 -1.66771,8.99175 3.05375,11.92084 3.34428,2.07472 4.55815,2.0982 8.62812,0.16687 z m -9.78744,-5.12142 c -1.37657,-1.37656 -0.59386,-3.33333 1.33333,-3.33333 1.33333,0 2,0.66667 2,2 0,1.92719 -1.95677,2.7099 -3.33333,1.33333 z m 5.53025,-4.21163 c -0.61695,-0.38129 -0.85546,-1.711449 -0.53003,-2.955903 0.73783,-2.821446 3.71267,-2.485451 4.13598,0.467141 0.32082,2.237692 -1.7262,3.650512 -3.60595,2.488762 z M 159.41656,280.43854 c 0,-0.55 0.47656,-1 1.05902,-1 0.58246,0 0.7809,0.45 0.44098,1 -0.33992,0.55 -0.81648,1 -1.05902,1 -0.24254,0 -0.44098,-0.45 -0.44098,-1 z m 55.7175,-10.11564 c -2.08037,-0.47664 -5.06635,-1.53051 -6.6355,-2.34195 -3.22719,-1.66885 -11.082,-10.19432 -11.082,-12.02821 0,-0.66232 -0.9,-2.01871 -2,-3.0142 -1.66995,-1.51129 -2,-3.07997 -2,-9.50576 0,-15.89765 5.79606,-23.10697 21.63138,-26.90581 4.51141,-1.08227 5.79977,-0.97557 11.85986,0.98224 3.73924,1.20803 8.42091,3.59882 10.40369,5.31287 1.98279,1.71405 4.50507,3.61091 5.60507,4.21524 2.45378,1.34809 3.86189,4.05677 6.31243,12.14275 3.59917,11.8761 0.13858,20.38092 -10.58336,26.00984 -9.60039,5.04011 -16.93135,6.64059 -23.51157,5.13299 z m -11.9675,-36.87071 c 1.718,-0.0188 1.5767,-1.67431 -0.20113,-2.35652 -0.79813,-0.30627 -2.48563,0.35477 -3.75,1.46898 l -2.29887,2.02583 2.5,-0.56231 c 1.375,-0.30928 3.0625,-0.56847 3.75,-0.57598 z m 9.34289,-7.94388 c 4.29147,-1.92134 4.29868,-1.93339 1.56891,-2.61852 -2.66903,-0.66988 -6.6618,1.54996 -6.6618,3.70374 0,1.15246 0.18103,1.11389 5.09289,-1.08522 z m 14.59318,-2.00942 2.81393,-0.80088 -2.90559,-0.7772 c -2.26329,-0.60538 -3.20279,-0.37075 -4.25,1.0614 -1.7779,2.43143 -1.72013,4.01304 0.0917,2.50939 0.78983,-0.65551 2.70233,-1.55223 4.25,-1.99271 z m 77.81393,18.96556 c -3.3,-0.32338 -7.52018,-1.40289 -9.37818,-2.3989 -1.858,-0.99602 -5.46557,-2.43083 -8.0168,-3.18846 -5.33091,-1.58311 -11.74652,-7.26431 -15.56888,-13.78667 -2.91072,-4.96676 -7.53614,-17.93925 -7.53614,-21.1359 0,-1.17355 -0.66069,-3.00723 -1.4682,-4.07485 -3.44661,-4.55684 -1.15938,-24.65465 4.4317,-38.94113 2.61943,-6.69323 4.14405,-8.96248 9.33367,-13.89226 7.17968,-6.82021 12.16506,-9.33359 20.92773,-10.55075 3.4513,-0.4794 8.9751,-1.63726 12.2751,-2.57303 11.61639,-3.29404 24.89538,0.67326 42,12.54811 7.59797,5.27488 15.5,15.28547 15.5,19.63599 0,1.31394 1.29629,4.96364 2.88065,8.11046 2.60487,5.17373 2.94956,7.06367 3.60052,19.74132 0.46931,9.14013 0.34499,15.41205 -0.35721,18.0198 -1.38526,5.14445 -10.08573,18.55007 -13.48477,20.7772 -1.44023,0.94368 -6.56073,2.62491 -11.37889,3.73607 -4.81817,1.11116 -11.2353,2.85078 -14.2603,3.86581 -10.70595,3.59237 -20.63985,4.97544 -29.5,4.10719 z m -32.25,-69.48721 c 4.42993,-2.25527 4.69901,-3.26241 1.11217,-4.16265 -2.06722,-0.51884 -3.03585,-0.1444 -4.47777,1.73095 -1.83468,2.38618 -2.55782,5.38239 -1.1344,4.70025 0.4125,-0.19769 2.4375,-1.21853 4.5,-2.26855 z m 18.96819,-7.5387 c 3.66514,0 3.27187,-2.0924 -0.65399,-3.47965 -2.4164,-0.85386 -3.08002,-0.622 -5.16829,1.80577 -3.41489,3.97004 -3.25391,6.49394 0.23895,3.74646 1.44917,-1.13992 3.96167,-2.07258 5.58333,-2.07258 z m 23.9798,-3.58433 c 4.53547,0.72525 4.89019,-0.34165 0.89772,-2.70006 -4.19826,-2.47998 -7.59429,-2.16852 -10.02313,0.91925 -2.98193,3.7909 -2.57421,4.47268 1.62541,2.71797 2.36993,-0.99022 5.06342,-1.32678 7.5,-0.93716 z m 14.93863,-3.48879 c 1.42879,-0.76466 2.89367,-0.76337 5.09642,0.005 4.02941,1.40466 4.88989,0.43341 1.75202,-1.97755 -3.07386,-2.36176 -5.76776,-2.46047 -8.15632,-0.29885 -3.12587,2.82887 -2.32671,4.21707 1.30788,2.27189 z m 27.83196,0.32312 c -0.0638,-1.52156 -5.08791,-4.37236 -7.16608,-4.06617 -3.77651,0.55643 -3.33105,2.81617 0.55515,2.81617 1.93837,0 3.80243,0.45 4.14235,1 0.72052,1.16583 2.51456,1.34752 2.46858,0.25 z m -81.46858,-3.25 c 0.99549,-1.1 2.69533,-2 3.77743,-2 1.63547,0 1.7574,-0.25311 0.72257,-1.5 -1.81404,-2.18578 -3.5816,-1.84737 -5.92742,1.13486 -3.366,4.27917 -2.14126,6.30849 1.42742,2.36514 z m 14.05887,-6.4682 c 1.06762,-0.8075 3.51613,-1.49748 5.44113,-1.53327 l 3.5,-0.0651 -2.36078,-1.96673 c -3.14826,-2.62276 -4.75861,-2.48045 -7.68697,0.67929 -3.72067,4.01467 -2.97091,5.96987 1.10662,2.88578 z m 52.13537,-6.0634 c -3.48191,-3.06324 -7.22935,-3.20557 -8.76672,-0.33297 -1.04492,1.95246 -0.93686,2.08373 1.26125,1.53204 1.32225,-0.33186 3.7332,-0.20649 5.35766,0.27862 4.73604,1.41429 5.12829,1.14442 2.14781,-1.47769 z m -19.28001,-0.53409 c -3.6666,-2.41711 -6.63432,-2.45358 -8.75739,-0.10762 -1.58449,1.75084 -1.37649,1.83089 5.00925,1.92772 l 6.66237,0.10104 z m -48.8428,-23.50574 c -1.95218,-1.95218 -1.95356,-2.438 -0.0147,-5.20606 1.55363,-2.21811 3.86996,-2.76349 6.86151,-1.61552 1.8688,0.71712 2.12025,5.45455 0.38179,7.19301 -1.68275,1.68275 -5.36352,1.49362 -7.22857,-0.37143 z m 5.42857,-3.42857 c 0,-2.19211 -0.13075,-2.27079 -2.35507,-1.41724 -1.80473,0.69254 -1.03764,3.41724 0.96206,3.41724 0.76615,0 1.39301,-0.9 1.39301,-2 z m 20.5,-4 c 2.80808,-1.20667 6.74576,-1.20667 6,0 -0.33992,0.55 -2.27898,0.96837 -4.30902,0.92971 -2.97467,-0.0566 -3.30284,-0.23707 -1.69098,-0.92971 z m 19.92706,-0.76531 c -3.45889,-2.36845 -1.47843,-7.23469 2.94437,-7.23469 2.82997,0 4.62857,1.78478 4.62857,4.59301 0,2.95759 -4.71142,4.60108 -7.57294,2.64168 z m 4.57294,-3.23469 c 0,-0.55 -0.64844,-1 -1.44098,-1 -0.79254,0 -1.7191,0.45 -2.05902,1 -0.33992,0.55 0.30852,1 1.44098,1 1.13246,0 2.05902,-0.45 2.05902,-1 z"
     style="fill:#000000"
     inkscape:connector-curvature="0" />
</svg>
